<?xml version="1.0" standalone="no"?>
<!DOCTYPE svg PUBLIC "-//W3C//DTD SVG 20010904//EN"
 "http://www.w3.org/TR/2001/REC-SVG-20010904/DTD/svg10.dtd">
<svg version="1.0" xmlns="http://www.w3.org/2000/svg"
 width="899.000000pt" height="899.000000pt" viewBox="0 0 899.000000 899.000000"
 preserveAspectRatio="xMidYMid meet">
<metadata>
Created by potrace 1.14, written by Peter Selinger 2001-2017
</metadata>
<g transform="translate(0.000000,899.000000) scale(0.100000,-0.100000)"
fill="#000000" stroke="none">
<path d="M4232 8882 c-84 -54 -545 -342 -1025 -642 -479 -300 -886 -554 -904
-565 -18 -11 -32 -23 -33 -26 0 -5 47 -20 240 -74 154 -42 222 -62 485 -137
143 -42 269 -78 280 -81 45 -12 274 -78 320 -92 28 -8 277 -80 555 -159 l505
-145 170 108 c93 59 268 170 388 246 119 77 228 147 242 155 14 8 88 56 166
105 164 105 375 240 597 379 86 55 159 103 162 106 3 4 30 21 60 39 30 17 89
54 130 81 41 27 99 63 128 80 55 33 63 45 35 54 -10 2 -335 95 -723 206 -388
111 -869 249 -1070 307 -201 58 -374 107 -385 110 -11 3 -49 14 -84 24 -35 10
-68 19 -75 18 -6 0 -80 -44 -164 -97z"/>
<path d="M8334 8547 c-44 -28 -193 -123 -330 -210 -137 -87 -431 -275 -654
-417 -223 -143 -435 -278 -471 -300 l-67 -41 35 -57 c133 -218 264 -584 298
-832 22 -157 27 -442 12 -595 -12 -121 -53 -314 -93 -438 -195 -606 -602
-1082 -1173 -1368 -115 -58 -382 -158 -461 -173 -14 -2 -46 -9 -73 -15 -26 -6
-64 -14 -83 -17 -20 -3 -46 -8 -58 -10 -131 -26 -541 -26 -681 0 -29 5 -96 17
-125 23 -198 35 -494 149 -690 265 -185 109 -307 204 -465 363 -139 139 -155
157 -244 282 -44 62 -78 100 -85 96 -6 -3 -33 -21 -61 -38 -129 -83 -562 -359
-579 -369 -11 -6 -25 -14 -30 -19 -6 -4 -31 -20 -56 -36 -25 -15 -101 -64
-170 -108 -69 -44 -244 -156 -390 -248 -146 -93 -294 -187 -330 -210 -110 -71
-724 -461 -745 -473 -15 -8 -16 -12 -5 -12 40 -3 173 -8 352 -14 108 -4 234
-9 280 -11 46 -2 164 -7 263 -10 99 -3 234 -8 300 -10 66 -2 188 -7 270 -10
144 -5 259 -9 560 -21 77 -2 203 -7 280 -9 77 -3 194 -7 260 -10 66 -2 190 -7
275 -10 151 -5 261 -9 520 -20 113 -5 219 -8 565 -20 273 -9 449 -16 451 -18
2 -2 131 -297 224 -512 26 -60 59 -135 73 -165 21 -47 170 -387 364 -830 30
-69 61 -138 68 -155 7 -16 72 -165 145 -330 72 -165 139 -318 149 -340 11 -22
31 -69 46 -105 15 -36 43 -98 61 -138 19 -41 34 -75 34 -77 0 -2 13 -32 29
-67 16 -35 41 -91 55 -125 14 -35 37 -86 50 -115 13 -29 57 -127 96 -218 40
-91 81 -185 93 -210 l20 -45 18 80 c10 44 23 100 29 125 6 25 12 54 14 66 2
11 9 38 15 60 6 21 20 82 32 134 11 52 22 102 24 110 29 128 57 245 60 249 1
3 6 22 9 41 3 19 8 44 10 55 12 53 139 600 156 670 29 122 150 652 155 676 2
12 13 58 24 103 11 44 23 92 25 106 3 14 7 34 10 45 2 11 23 99 45 196 22 97
43 182 45 190 3 8 7 25 10 39 2 14 14 66 25 115 12 50 29 122 37 160 9 39 17
77 19 85 2 8 24 105 50 215 26 110 48 207 50 215 2 8 9 38 15 65 6 28 13 57
15 65 2 8 15 67 30 130 14 63 29 126 31 140 3 14 18 79 34 145 16 66 45 190
64 275 20 85 52 223 71 305 38 163 103 449 109 480 2 11 16 67 30 125 14 58
27 116 30 130 2 14 9 45 16 70 7 25 14 56 17 70 2 14 8 41 13 60 5 19 11 46
14 60 3 14 17 74 31 135 14 60 27 119 29 130 2 11 16 67 30 125 14 58 27 117
30 130 2 14 5 25 6 25 1 0 3 10 6 21 2 12 26 120 54 239 27 119 52 227 54 238
3 12 18 79 35 150 17 70 51 216 76 325 57 252 147 642 174 752 11 47 22 97 24
110 3 14 10 43 15 65 6 22 13 51 15 65 3 14 10 43 15 65 6 22 13 54 16 70 3
17 10 46 16 65 5 19 10 36 10 37 0 9 -25 -3 -96 -50z"/>
<path d="M5915 7005 c-192 -123 -532 -339 -754 -481 l-404 -257 -206 59 c-113
32 -210 59 -216 60 -5 2 -199 57 -430 124 -231 67 -442 128 -470 135 -27 8
-80 23 -117 33 l-68 19 -1 -21 c0 -11 -3 -32 -5 -46 -18 -98 -22 -166 -19
-315 3 -179 4 -184 30 -309 55 -263 195 -548 365 -741 200 -228 454 -398 734
-490 177 -59 314 -80 521 -80 161 0 225 6 350 33 602 132 1079 583 1245 1177
44 159 58 279 55 470 -2 94 -6 188 -10 210 -12 74 -57 250 -82 320 -33 92
-129 288 -151 308 -16 14 -45 -3 -367 -208z"/>
</g>
</svg>
